{"accessors":[{"bufferView":0,"byteOffset":0,"componentType":5126,"count":393,"max":[1.001493,0.723196,1],"min":[-1.000041,0.003847,-1],"normalized":false,"type":"VEC3"},{"bufferView":1,"byteOffset":0,"componentType":5126,"count":393,"max":[1,0.99319,1,1],"min":[0.000024,-0.985871,-1,-1],"normalized":false,"type":"VEC4"},{"bufferView":2,"byteOffset":0,"componentType":5126,"count":393,"max":[1,1,1],"min":[-1,-1,-1],"normalized":false,"type":"VEC3"},{"bufferView":3,"byteOffset":0,"componentType":5126,"count":393,"max":[1,1],"min":[-0.000015,-0.000015],"normalized":false,"type":"VEC2"},{"bufferView":4,"byteOffset":0,"componentType":5125,"count":423,"max":[392],"min":[0],"normalized":false,"type":"SCALAR"},{"bufferView":5,"byteOffset":0,"componentType":5126,"count":219,"max":[1.00001,0.671256,0.999979],"min":[-1,0.004457,-1],"normalized":false,"type":"VEC3"},{"bufferView":6,"byteOffset":0,"componentType":5126,"count":219,"max":[1,0.927192,1,1],"min":[0.000024,-0.906416,-1,-1],"normalized":false,"type":"VEC4"},{"bufferView":7,"byteOffset":0,"componentType":5126,"count":219,"max":[1,1,1],"min":[-1,-1,-1],"normalized":false,"type":"VEC3"},{"bufferView":8,"byteOffset":0,"componentType":5126,"count":219,"max":[1,1],"min":[-0.000015,-0.000015],"normalized":false,"type":"VEC2"},{"bufferView":9,"byteOffset":0,"componentType":5125,"count":234,"max":[217],"min":[0],"normalized":false,"type":"SCALAR"},{"bufferView":10,"byteOffset":0,"componentType":5126,"count":341,"max":[1.001096,0.725367,1],"min":[-1.001373,0.000548,-1],"normalized":false,"type":"VEC3"},{"bufferView":11,"byteOffset":0,"componentType":5126,"count":341,"max":[1,0.994546,1,1],"min":[-0.143372,-0.988147,-1,-1],"normalized":false,"type":"VEC4"},{"bufferView":12,"byteOffset":0,"componentType":5126,"count":341,"max":[1,1,1],"min":[-1,-1,-1],"normalized":false,"type":"VEC3"},{"bufferView":13,"byteOffset":0,"componentType":5126,"count":341,"max":[1.000001,1],"min":[-0.000229,-0.000015],"normalized":false,"type":"VEC2"},{"bufferView":14,"byteOffset":0,"componentType":5125,"count":363,"max":[340],"min":[0],"normalized":false,"type":"SCALAR"},{"bufferView":15,"byteOffset":0,"componentType":5126,"count":380,"max":[1.000314,0.720891,1.000056],"min":[-1.000031,0.002211,-1],"normalized":false,"type":"VEC3"},{"bufferView":16,"byteOffset":0,"componentType":5126,"count":380,"max":[1,0.99165,1,1],"min":[0.000024,-0.982833,-1,-1],"normalized":false,"type":"VEC4"},{"bufferView":17,"byteOffset":0,"componentType":5126,"count":380,"max":[1,1,1],"min":[-1,-1,-1],"normalized":false,"type":"VEC3"},{"bufferView":18,"byteOffset":0,"componentType":5126,"count":380,"max":[1.000002,1],"min":[-0.000015,-0.000015],"normalized":false,"type":"VEC2"},{"bufferView":19,"byteOffset":0,"componentType":5125,"count":408,"max":[379],"min":[0],"normalized":false,"type":"SCALAR"},{"bufferView":20,"byteOffset":0,"componentType":5126,"count":314,"max":[1.000028,0.719812,1],"min":[-1.00123,0.00138,-1],"normalized":false,"type":"VEC3"},{"bufferView":21,"byteOffset":0,"componentType":5126,"count":314,"max":[1,0.993182,1,1],"min":[0.000024,-0.98662,-1,-1],"normalized":false,"type":"VEC4"},{"bufferView":22,"byteOffset":0,"componentType":5126,"count":314,"max":[1,1,1],"min":[-1,-1,-1],"normalized":false,"type":"VEC3"},{"bufferView":23,"byteOffset":0,"componentType":5126,"count":314,"max":[1.000001,1],"min":[-0.000015,-0.000015],"normalized":false,"type":"VEC2"},{"bufferView":24,"byteOffset":0,"componentType":5125,"count":336,"max":[313],"min":[0],"normalized":false,"type":"SCALAR"},{"bufferView":25,"byteOffset":0,"componentType":5126,"count":255,"max":[1.000143,0.692967,1.000527],"min":[-1.00131,0.003606,-1],"normalized":false,"type":"VEC3"},{"bufferView":26,"byteOffset":0,"componentType":5126,"count":255,"max":[1,0.986285,1,1],"min":[0.000024,-0.973147,-1,-1],"normalized":false,"type":"VEC4"},{"bufferView":27,"byteOffset":0,"componentType":5126,"count":255,"max":[1,1,1],"min":[-1,-1,-1],"normalized":false,"type":"VEC3"},{"bufferView":28,"byteOffset":0,"componentType":5126,"count":255,"max":[1,1],"min":[-0.000015,-0.000015],"normalized":false,"type":"VEC2"},{"bufferView":29,"byteOffset":0,"componentType":5125,"count":279,"max":[254],"min":[0],"normalized":false,"type":"SCALAR"},{"bufferView":30,"byteOffset":0,"componentType":5126,"count":472,"max":[1.000005,0.661923,1.000033],"min":[-1.000035,0.003862,-1],"normalized":false,"type":"VEC3"},{"bufferView":31,"byteOffset":0,"componentType":5126,"count":472,"max":[1,0.778547,1,1],"min":[0.000024,-0.927843,-1,-1],"normalized":false,"type":"VEC4"},{"bufferView":32,"byteOffset":0,"componentType":5126,"count":472,"max":[1,1,1],"min":[-1,-1,-1],"normalized":false,"type":"VEC3"},{"bufferView":33,"byteOffset":0,"componentType":5126,"count":472,"max":[1,1],"min":[-0.000015,-0.000015],"normalized":false,"type":"VEC2"},{"bufferView":34,"byteOffset":0,"componentType":5125,"count":522,"max":[444],"min":[0],"normalized":false,"type":"SCALAR"},{"bufferView":35,"byteOffset":0,"componentType":5126,"count":514,"max":[1.000443,0.715515,1.000439],"min":[-1.000482,0.001568,-1],"normalized":false,"type":"VEC3"},{"bufferView":36,"byteOffset":0,"componentType":5126,"count":514,"max":[1,0.985533,1,1],"min":[-0.152513,-0.986403,-1,-1],"normalized":false,"type":"VEC4"},{"bufferView":37,"byteOffset":0,"componentType":5126,"count":514,"max":[1,1,1],"min":[-1,-1,-1],"normalized":false,"type":"VEC3"},{"bufferView":38,"byteOffset":0,"componentType":5126,"count":514,"max":[1.000023,1],"min":[-0.000015,-0.000015],"normalized":false,"type":"VEC2"},{"bufferView":39,"byteOffset":0,"componentType":5125,"count":540,"max":[513],"min":[0],"normalized":false,"type":"SCALAR"}],"asset":{"generator":"Godot Engine v4.2.1.stable.official@b09f793f564a6c95dc76acc654b390e68441bd01","version":"2.0"},"bufferViews":[{"buffer":0,"byteLength":4716,"byteOffset":0},{"buffer":0,"byteLength":6288,"byteOffset":4716},{"buffer":0,"byteLength":4716,"byteOffset":11004},{"buffer":0,"byteLength":3144,"byteOffset":15720},{"buffer":0,"byteLength":1692,"byteOffset":18864},{"buffer":0,"byteLength":2628,"byteOffset":20556},{"buffer":0,"byteLength":3504,"byteOffset":23184},{"buffer":0,"byteLength":2628,"byteOffset":26688},{"buffer":0,"byteLength":1752,"byteOffset":29316},{"buffer":0,"byteLength":936,"byteOffset":31068},{"buffer":0,"byteLength":4092,"byteOffset":32004},{"buffer":0,"byteLength":5456,"byteOffset":36096},{"buffer":0,"byteLength":4092,"byteOffset":41552},{"buffer":0,"byteLength":2728,"byteOffset":45644},{"buffer":0,"byteLength":1452,"byteOffset":48372},{"buffer":0,"byteLength":4560,"byteOffset":49824},{"buffer":0,"byteLength":6080,"byteOffset":54384},{"buffer":0,"byteLength":4560,"byteOffset":60464},{"buffer":0,"byteLength":3040,"byteOffset":65024},{"buffer":0,"byteLength":1632,"byteOffset":68064},{"buffer":0,"byteLength":3768,"byteOffset":69696},{"buffer":0,"byteLength":5024,"byteOffset":73464},{"buffer":0,"byteLength":3768,"byteOffset":78488},{"buffer":0,"byteLength":2512,"byteOffset":82256},{"buffer":0,"byteLength":1344,"byteOffset":84768},{"buffer":0,"byteLength":3060,"byteOffset":86112},{"buffer":0,"byteLength":4080,"byteOffset":89172},{"buffer":0,"byteLength":3060,"byteOffset":93252},{"buffer":0,"byteLength":2040,"byteOffset":96312},{"buffer":0,"byteLength":1116,"byteOffset":98352},{"buffer":0,"byteLength":5664,"byteOffset":99468},{"buffer":0,"byteLength":7552,"byteOffset":105132},{"buffer":0,"byteLength":5664,"byteOffset":112684},{"buffer":0,"byteLength":3776,"byteOffset":118348},{"buffer":0,"byteLength":2088,"byteOffset":122124},{"buffer":0,"byteLength":6168,"byteOffset":124212},{"buffer":0,"byteLength":8224,"byteOffset":130380},{"buffer":0,"byteLength":6168,"byteOffset":138604},{"buffer":0,"byteLength":4112,"byteOffset":144772},{"buffer":0,"byteLength":2160,"byteOffset":148884}],"buffers":[{"byteLength":151044,"uri":"temp_mesh_lib0.bin"}],"extensionsUsed":["GODOT_single_root"],"images":[{"uri":"textures%2FBrickTexture_albedo000.png"},{"uri":"textures%2FBrickTexture_albedo002.png"},{"uri":"textures%2FBrickTexture_albedo003.png"},{"uri":"textures%2FBrickTexture_albedo004.png"},{"uri":"textures%2FBrickTexture_albedo005.png"},{"uri":"textures%2FBrickTexture_albedo006.png"},{"uri":"textures%2FBrickTexture_albedo007.png"},{"uri":"textures%2FBrickTexture_albedo008.png"}],"materials":[{"doubleSided":true,"extensions":{},"name":"BrickTexture","pbrMetallicRoughness":{"baseColorFactor":[0.99999988079071,0.99999988079071,0.99999988079071,1],"baseColorTexture":{"index":0},"metallicFactor":0,"roughnessFactor":1}},{"doubleSided":true,"extensions":{},"name":"BrickTexture2","pbrMetallicRoughness":{"baseColorFactor":[0.99999988079071,0.99999988079071,0.99999988079071,1],"baseColorTexture":{"index":1},"metallicFactor":0,"roughnessFactor":1}},{"doubleSided":true,"extensions":{},"name":"BrickTexture3","pbrMetallicRoughness":{"baseColorFactor":[0.99999988079071,0.99999988079071,0.99999988079071,1],"baseColorTexture":{"index":2},"metallicFactor":0,"roughnessFactor":1}},{"doubleSided":true,"extensions":{},"name":"BrickTexture4","pbrMetallicRoughness":{"baseColorFactor":[0.99999988079071,0.99999988079071,0.99999988079071,1],"baseColorTexture":{"index":3},"metallicFactor":0,"roughnessFactor":1}},{"doubleSided":true,"extensions":{},"name":"BrickTexture5","pbrMetallicRoughness":{"baseColorFactor":[0.99999988079071,0.99999988079071,0.99999988079071,1],"baseColorTexture":{"index":4},"metallicFactor":0,"roughnessFactor":1}},{"doubleSided":true,"extensions":{},"name":"BrickTexture6","pbrMetallicRoughness":{"baseColorFactor":[0.99999988079071,0.99999988079071,0.99999988079071,1],"baseColorTexture":{"index":5},"metallicFactor":0,"roughnessFactor":1}},{"doubleSided":true,"extensions":{},"name":"BrickTexture7","pbrMetallicRoughness":{"baseColorFactor":[0.99999988079071,0.99999988079071,0.99999988079071,1],"baseColorTexture":{"index":6},"metallicFactor":0,"roughnessFactor":1}},{"doubleSided":true,"extensions":{},"name":"BrickTexture8","pbrMetallicRoughness":{"baseColorFactor":[0.99999988079071,0.99999988079071,0.99999988079071,1],"baseColorTexture":{"index":7},"metallicFactor":0,"roughnessFactor":1}}],"meshes":[{"extras":{"targetNames":[]},"primitives":[{"attributes":{"NORMAL":2,"POSITION":0,"TANGENT":1,"TEXCOORD_0":3},"indices":4,"material":0,"mode":4}]},{"extras":{"targetNames":[]},"primitives":[{"attributes":{"NORMAL":7,"POSITION":5,"TANGENT":6,"TEXCOORD_0":8},"indices":9,"material":1,"mode":4}]},{"extras":{"targetNames":[]},"primitives":[{"attributes":{"NORMAL":12,"POSITION":10,"TANGENT":11,"TEXCOORD_0":13},"indices":14,"material":2,"mode":4}]},{"extras":{"targetNames":[]},"primitives":[{"attributes":{"NORMAL":17,"POSITION":15,"TANGENT":16,"TEXCOORD_0":18},"indices":19,"material":3,"mode":4}]},{"extras":{"targetNames":[]},"primitives":[{"attributes":{"NORMAL":22,"POSITION":20,"TANGENT":21,"TEXCOORD_0":23},"indices":24,"material":4,"mode":4}]},{"extras":{"targetNames":[]},"primitives":[{"attributes":{"NORMAL":27,"POSITION":25,"TANGENT":26,"TEXCOORD_0":28},"indices":29,"material":5,"mode":4}]},{"extras":{"targetNames":[]},"primitives":[{"attributes":{"NORMAL":32,"POSITION":30,"TANGENT":31,"TEXCOORD_0":33},"indices":34,"material":6,"mode":4}]},{"extras":{"targetNames":[]},"primitives":[{"attributes":{"NORMAL":37,"POSITION":35,"TANGENT":36,"TEXCOORD_0":38},"indices":39,"material":7,"mode":4}]}],"nodes":[{"children":[1,2,3,4,5,6,7,8],"extensions":{},"name":"TempMeshLib"},{"extensions":{},"mesh":0,"name":"floor_tile_1"},{"extensions":{},"mesh":1,"name":"floor_tile_2","translation":[0,0,3]},{"extensions":{},"mesh":2,"name":"floor_tile_3","translation":[0,0,6]},{"extensions":{},"mesh":3,"name":"floor_tile_4","translation":[0,0,9]},{"extensions":{},"mesh":4,"name":"floor_tile_5","translation":[0,0,12]},{"extensions":{},"mesh":5,"name":"floor_tile_6","translation":[0,0,15]},{"extensions":{},"mesh":6,"name":"floor_tile_7","translation":[0,0,18]},{"extensions":{},"mesh":7,"name":"floor_tile_8","translation":[0,0,21]}],"samplers":[{"magFilter":9729,"minFilter":9987,"wrapS":10497,"wrapT":10497}],"scene":0,"scenes":[{"nodes":[0]}],"textures":[{"sampler":0,"source":0},{"sampler":0,"source":1},{"sampler":0,"source":2},{"sampler":0,"source":3},{"sampler":0,"source":4},{"sampler":0,"source":5},{"sampler":0,"source":6},{"sampler":0,"source":7}]}